<?xml version="1.0" encoding="utf-8"?>
<!-- Generator: Adobe Illustrator 21.0.0, SVG Export Plug-In . SVG Version: 6.00 Build 0)  -->
<svg version="1.1" id="Layer_1" xmlns="http://www.w3.org/2000/svg" xmlns:xlink="http://www.w3.org/1999/xlink" x="0px" y="0px"
	 viewBox="0 0 155 70" style="enable-background:new 0 0 155 70;" xml:space="preserve">
<style type="text/css">
	.st0{fill:#FFFFFF;}
</style>
<g>
	<g>
		<path class="st0" d="M112.3,3.8c7.8,0,15.9,1.7,22.1,6.6c6.9,5.4,10.5,14.1,10.9,22.6c-1.2,0-2.4,0-3.6,0
			c-0.4-6.8-2.7-13.8-7.7-18.5C128.3,9,120,7,112.3,7.3C112.3,6.1,112.3,4.9,112.3,3.8z"/>
		<path class="st0" d="M112.6,14.4c0-1,0-2,0-3c5.9-0.1,12.1,1.1,16.9,4.8c5.4,4.2,8.2,11.1,8.4,17.8c-1.3,0-2.7,0-4,0
			c-0.3-5-1.9-10.1-5.4-13.7C124.4,16.1,118.4,14.4,112.6,14.4z"/>
		<path class="st0" d="M113.3,18.3c4.8-0.1,9.9,1.3,13.3,4.9c2.8,3,3.7,7.2,3.6,11.2c-1.2,0-2.3,0-3.5,0c0.1-3.6-1.2-7.4-4-9.6
			c-2.6-2.2-6.1-2.8-9.3-2.9C113.3,20.7,113.3,19.5,113.3,18.3z"/>
		<path class="st0" d="M113.6,26.1c3.3-1,7.1,0.9,8.4,4.1c1,2.3,0.6,5.2-1,7.2c-1.8,2.3-5.1,3.3-7.9,2.4c-2.9-0.9-4.9-3.8-4.9-6.8
			C108.4,29.8,110.6,26.9,113.6,26.1z"/>
	</g>
	<g>
		<path class="st0" d="M3.3,8.4C3.2,6.9,4.8,5.8,6.2,5.9c5.4,0,10.9,0,16.3,0c0.8-0.1,1.5,0.3,2.1,0.8c0.3,2.3,0.1,4.6,0.2,6.8
			c0.1,1.2-0.7,2.1-1.7,2.7c1.1,0,2.2-0.1,3.2,0c1.2,0.1,2.2,1.1,2.3,2.3c0,3.2,0,6.4,0,9.6c0,1.1-0.9,2-2,2c-7.1,0-14.3,0-21.4,0
			c-1.2,0-2-1.2-1.9-2.3C3.2,21.3,3.2,14.9,3.3,8.4z M11.7,9.6c-0.5,0.1-1,0.6-1,1.2c0,1.3,0,2.7,0,4c0,0.7,0.5,1.4,1.2,1.4
			c1.4,0,2.9,0,4.3,0c0.5,0,1-0.5,1-1c0.1-1.5,0-2.9,0-4.4c0-0.7-0.6-1.2-1.3-1.2C14.6,9.5,13.2,9.5,11.7,9.6z M10.7,20.2
			c-0.2,2-0.3,4,0,6c0.5,0.2,1,0.4,1.5,0.4c2.7,0,5.4,0,8.1,0c0.7,0,1.4-0.5,1.4-1.2c0.1-1.5,0.1-2.9,0-4.4c0-0.8-0.8-1.2-1.5-1.2
			c-2.1,0-4.3,0-6.4,0C12.9,19.8,11.7,19.6,10.7,20.2z"/>
	</g>
	<path class="st0" d="M31.4,8.4c0-1.1,0.8-2.2,1.9-2.5c0.9-0.1,1.9-0.1,2.8,0c1.1,0.2,2,1.3,2,2.4c0.1,5.8-0.1,11.6,0.1,17.4
		c0.9,0.8,2.2,0.5,3.3,0.6c1.3-0.1,2.7,0.3,3.9-0.5c0.1-0.4,0.1-0.9,0.2-1.3c2,0,4.1-0.1,6.1,0.1c0.7,1.3,0.4,2.8,0.4,4.2
		c0.1,0.8-0.7,1.3-1.4,1.3c-5.6,0-11.1,0-16.7,0c-1.3,0.1-2.6-1-2.6-2.4C31.4,21.3,31.4,14.8,31.4,8.4z"/>
	<g>
		<path class="st0" d="M56.5,6.1c0.5-0.3,1.1-0.2,1.6-0.2c6.2,0,12.5,0,18.7,0c1.4-0.1,2.7,1.1,2.6,2.5c0,6.4,0,12.7,0,19.1
			c0.1,1.4-1.2,2.7-2.6,2.7c-6.4,0-12.7,0-19.1,0c-1.5,0.1-2.9-1.1-2.7-2.7c0-6.4,0-12.7,0-19.1C55,7.4,55.6,6.5,56.5,6.1z
			 M61.8,9.9c-0.4,1.2-0.3,2.4-0.3,3.6c0,3.7,0,7.5,0,11.2c0,0.5,0.1,0.9,0.3,1.4c0.2,0.1,0.6,0.3,0.8,0.4c3,0,5.9,0,8.9,0
			c0.8,0.1,1.5-0.6,1.4-1.4c0-4.7,0-9.3,0-14c0.1-0.9-0.7-1.6-1.5-1.5c-2.6,0-5.2,0-7.8,0C63,9.5,62.3,9.7,61.8,9.9z"/>
	</g>
	<path class="st0" d="M82.2,8.4c-0.1-1.3,1.1-2.5,2.4-2.5c6.8,0,13.6,0,20.4,0c1.2-0.1,2.3,1,2.4,2.2c0.1,1.2,0,2.3,0,3.5
		c-2.1,0-4.2,0-6.3,0c-0.1-0.5-0.1-1.1-0.5-1.5c-0.5-0.4-1.2-0.3-1.9-0.4c-2.9,0-5.9,0-8.8,0c-0.8,0-1.3,0.8-1.2,1.5
		c0,4.8,0,9.5,0,14.3c0,0.7,0.6,1.3,1.2,1.2c3.2,0.1,6.3,0,9.5,0c0.7,0.1,1.3-0.5,1.4-1.2c0.1-1.9,0.1-3.7-0.1-5.6
		c-0.9,0-1.8,0-2.7,0c0,0.7,0,1.6-0.9,1.9c-1.7,0.1-3.5,0.1-5.2,0c-0.9-1.2-0.4-2.8-0.5-4.2c-0.1-0.9,0.7-1.5,1.5-1.4
		c4.8,0.1,9.6,0,14.4,0.1c0,3.8,0,7.7,0,11.5c0,1.3-1.2,2.5-2.5,2.5c-6.7,0-13.4,0-20,0c-1.4,0.2-2.8-1-2.8-2.5
		C82.2,21.3,82.2,14.8,82.2,8.4z"/>
	<g>
		<g>
			<path class="st0" d="M52.6,36.6c1.7-0.6,3.4-0.5,5.1-0.5c1.6,0.1,3.6,0.2,4.7,1.7c3.1,4.3,6.1,8.7,9.2,12.9
				c0.5,0.7,0.4,1.5,0.4,2.3c0,3.5,0,7.1,0,10.6c0.1,1.3-1,2.5-2.3,2.5c-1.2,0-2.5,0-3.7,0c-1.2,0-2.2-1-2.3-2.2
				c-0.1-0.9,0-1.7,0-2.6c-4.5,0-9,0-13.4,0c-0.1,1.3,0.4,3-0.7,4.1c-0.9,0.9-2.3,0.6-3.5,0.7c-1-0.1-2.2,0.2-3.1-0.5
				c-0.7-0.5-1.1-1.2-1.1-2c0-3.6,0-7.3,0-10.9c-0.1-1.9,1-3.5,1.9-5c2-3,4.3-5.9,6.4-8.8C50.8,38,51.5,37,52.6,36.6z M55.9,42.2
				c-1.7,2.6-3.4,5.2-5.2,7.8c-0.2,0.4-0.6,0.8-0.5,1.3c0,1.8,0,3.6,0,5.4c4.5,0,9,0.1,13.4,0c0-1.6,0-3.1,0-4.7
				c0-0.5-0.4-1-0.6-1.4c-2-3-3.9-6-5.8-9C56.7,41.6,56.1,41.7,55.9,42.2z"/>
		</g>
		<g>
			<path class="st0" d="M77.6,36.1c6.2-0.1,12.4,0,18.6-0.1c1-0.1,2,0.3,2.5,1.2c2.3,3.2,4.6,6.5,6.9,9.7c0.9,1.1,1.1,2.6,1.1,4
				c0,4.2,0,8.4,0,12.6c0.1,1.3-1,2.6-2.3,2.5c-8.7,0-17.4,0-26.2,0c-1.4,0.2-2.7-1.1-2.6-2.5c0-8.3,0-16.5,0-24.8
				C75.5,37.5,76.4,36.3,77.6,36.1z M85.1,40.8c-0.6,0.3-0.7,1-0.7,1.6c0,5.6,0,11.1,0,16.7c-0.1,1.1,0.9,2.2,2,2.2
				c3.2,0,6.3,0,9.5,0c1.1,0.1,2.2-0.8,2.2-1.9c0.1-3.3,0-6.5,0-9.8c0.1-1.1-0.5-2-1.1-2.9c-1.4-1.9-2.8-3.8-4.1-5.7
				c-0.7-0.5-1.6-0.2-2.5-0.3C88.6,40.8,86.8,40.5,85.1,40.8z"/>
		</g>
		<g>
			<path class="st0" d="M3.3,38.7c-0.1-1.4,1.2-2.6,2.6-2.5c8.6,0,17.2,0,25.8,0c1.4-0.1,2.6,1.2,2.5,2.5c0,4,0.1,7.9,0,11.9
				c0,1.2-1.1,2.2-2.3,2.2c-1.5,0.1-3.1,0-4.6,0c3.6,4.4,7.2,8.8,10.8,13.1c-3.2,0-6.3,0-9.5,0c-3.9-4.4-7.9-8.7-11.8-13.1
				c-1.7,0-3.4,0-5.1,0c0,3.5,0,7.1,0,10.6c0.1,1.3-1.1,2.5-2.4,2.5c-1.3,0-2.5,0-3.8,0c-1.6-0.1-2.4-1.7-2.2-3.1
				C3.3,54.8,3.2,46.8,3.3,38.7z M12,40.9c-0.6,1.8-0.2,3.8-0.3,5.6c-0.1,0.8,0.4,1.7,1.3,1.6c3.7,0,7.5,0,11.2,0
				c0.7,0.1,1.5-0.3,1.5-1.1c0.1-1.4,0-2.9,0-4.3c0-0.6,0.1-1.4-0.4-1.8c-0.4-0.3-1-0.3-1.5-0.3c-3.4,0-6.8,0-10.2,0
				C13,40.6,12.5,40.8,12,40.9z"/>
		</g>
		<path class="st0" d="M112.3,42.7c1.4-0.2,2.8-0.1,4.3-0.1c1.1,0,2.1,0.9,2.3,2c0.2,1.1,0.1,2.2,0.1,3.3c0,5.2,0.1,10.4-0.1,15.6
			c0,1.3-1,2.5-2.3,2.5c-1.2,0-2.5,0-3.7,0c-1.3,0-2.5-1.2-2.4-2.5c0-6.1,0-12.3,0-18.4C110.4,44,111.2,42.9,112.3,42.7z"/>
		<g>
			<path class="st0" d="M125.9,42.7c7.8-0.1,15.5,0,23.3,0c1.4-0.1,2.7,1.1,2.6,2.5c0,6.1,0,12.2,0,18.3c0.1,1.4-1.2,2.7-2.6,2.6
				c-7.6,0-15.2,0-22.7,0c-1.4,0.2-2.7-1.1-2.7-2.5c0-6.1,0-12.2,0-18.4C123.7,44,124.7,42.8,125.9,42.7z M134,47.3
				c-1.2,0.2-2,1.4-2,2.6c0,3,0,5.9,0,8.9c0,1.4,1.2,2.6,2.5,2.6c2.1,0,4.1,0,6.2,0c1.4,0.1,2.8-1.2,2.7-2.6c0-3.1,0-6.2,0-9.2
				c0-1.3-1.4-2.4-2.7-2.3C138.5,47.3,136.2,47.2,134,47.3z"/>
		</g>
	</g>
</g>
</svg>
